<svg viewBox="0 0 1024 1024" xml:space="preserve" xmlns="http://www.w3.org/2000/svg"><linearGradient gradientTransform="rotate(20.004 719.287 2330.923)" gradientUnits="userSpaceOnUse" id="a" x1="231.461" x2="-426.957" y1="1084.928" y2="300.35"><stop offset="0" stop-color="#0b210e" class="stop-color-000000"></stop><stop offset=".192" stop-color="#0b210e" class="stop-color-090909"></stop><stop offset=".505" stop-color="#0b210e" class="stop-color-212121"></stop><stop offset=".899" stop-color="#0b210e" class="stop-color-494948"></stop><stop offset="1" stop-color="#0b210e" class="stop-color-545453"></stop></linearGradient><circle cx="512.001" cy="512" fill="url(#a)" r="512" class="fillurl(-a)"></circle><linearGradient gradientTransform="translate(428.68 183.08)" gradientUnits="userSpaceOnUse" id="b" x1="-130.523" x2="445.552" y1="114.91" y2="690.986"><stop offset="0" stop-color="#0b210e" class="stop-color-000000"></stop><stop offset=".483" stop-color="#0b210e" stop-opacity=".5167" class="stop-color-090909"></stop><stop offset="1" stop-color="#0b210e" stop-opacity="0" class="stop-color-181818"></stop></linearGradient><path d="M564.542 1021.417 280 736.875 278.875 735l-9.772-381.901s29.998-106.604 139.493-106.604h250.169s48.315 10.945 57.315 28.776h16.398l288.968 288.966s-5.925 46.839-12.128 69.719c0 0-12.438 46.392-22.561 69.75 0 0-13.656 32.226-22.135 47.624 0 0-7.117 13.825-14.727 26.011 0 0-12.305 19.639-17.562 27.067 0 0-12.303 17.122-16.608 22.576 0 0-10.664 13.646-18.386 22.283 0 0-11.057 12.514-17.765 19.31 0 0-6.57 6.95-14.039 13.94 0 0-23.227 21.294-33.406 29.231 0 0-38.493 28.975-56.518 39.278 0 0-26.516 15.543-43.139 23.099 0 0-33.203 14.739-45.363 18.994 0 0-12.729 4.689-23.186 7.827 0 0-16.249 4.968-25.785 7.307 0 0-10.217 2.662-19.06 4.483 0 0-11.486 2.598-22.819 4.37 0 0-17.959 2.747-23.312 3.362l-8.405.949z" fill="url(#b)" class="fillurl(-b)"></path><circle cx="658.765" cy="364.563" fill="#fbfad3" r="33.136" class="fill-ffffff"></circle><circle cx="512.001" cy="512" fill="none" r="121.412" stroke="#fbfad3" stroke-miterlimit="10" stroke-width="45" class="stroke-ffffff"></circle><path d="M255.358 612.506c0 91.127 73.875 165 165 165H603.64c91.127 0 165-73.873 165-165V411.495c0-91.127-73.873-165-165-165H420.358c-91.127 0-165 73.873-165 165v201.011z" fill="none" stroke="#fbfad3" stroke-miterlimit="10" stroke-width="45" class="stroke-ffffff"></path></svg>